<?xml version="1.0" encoding="UTF-8" standalone="no"?>
<!DOCTYPE svg PUBLIC "-//W3C//DTD SVG 1.1//EN" "http://www.w3.org/Graphics/SVG/1.1/DTD/svg11.dtd">
<!-- Generated by Microsoft Visio, SVG Export SASS Structure - Basic.svg Page-1 -->
<svg xmlns="http://www.w3.org/2000/svg" xmlns:xlink="http://www.w3.org/1999/xlink" xmlns:ev="http://www.w3.org/2001/xml-events"
		width="11.6929in" height="8.26772in" viewBox="0 0 841.89 595.276" xml:space="preserve" color-interpolation-filters="sRGB"
		class="st32">
	<style type="text/css">
	<![CDATA[
		.st1 {marker-end:url(#mrkr4-7);stroke:#923830;stroke-linecap:round;stroke-linejoin:round;stroke-width:0.2376}
		.st2 {fill:#923830;fill-opacity:1;stroke:#923830;stroke-opacity:1;stroke-width:0.086161879895561}
		.st3 {marker-end:url(#mrkr4-20);stroke:#923830;stroke-linecap:round;stroke-linejoin:round;stroke-width:0.2376}
		.st4 {fill:#ffffff;stroke:#c05046;stroke-linecap:round;stroke-linejoin:round;stroke-width:0.75}
		.st5 {fill:#60241f;font-family:Calibri;font-size:0.666664em}
		.st6 {marker-end:url(#mrkr4-46);stroke:#30849a;stroke-linecap:round;stroke-linejoin:round;stroke-width:0.2376}
		.st7 {fill:#30849a;fill-opacity:1;stroke:#30849a;stroke-opacity:1;stroke-width:0.086161879895561}
		.st8 {fill:#ffffff;stroke:#4bacc6;stroke-linecap:round;stroke-linejoin:round;stroke-width:0.75}
		.st9 {fill:#1f5665;font-family:Calibri;font-size:0.666664em}
		.st10 {font-size:1em}
		.st11 {marker-end:url(#mrkr4-57);stroke:#77943e;stroke-linecap:round;stroke-linejoin:round;stroke-width:0.2376}
		.st12 {fill:#77943e;fill-opacity:1;stroke:#77943e;stroke-opacity:1;stroke-width:0.086161879895561}
		.st13 {fill:#ffffff;stroke:#9dbb61;stroke-linecap:round;stroke-linejoin:round;stroke-width:0.75}
		.st14 {fill:#4e6129;font-family:Calibri;font-size:0.666664em}
		.st15 {fill:#ffffff;stroke:#000000;stroke-linecap:round;stroke-linejoin:round;stroke-width:0.75}
		.st16 {fill:#000000;font-family:Calibri;font-size:0.666664em}
		.st17 {marker-end:url(#mrkr4-84);stroke:#000000;stroke-linecap:round;stroke-linejoin:round;stroke-width:0.2376}
		.st18 {fill:#000000;fill-opacity:1;stroke:#000000;stroke-opacity:1;stroke-width:0.086161879895561}
		.st19 {marker-end:url(#mrkr4-101);stroke:#77943e;stroke-linecap:round;stroke-linejoin:round;stroke-width:0.2376}
		.st20 {fill:#4f6229;font-family:Calibri;font-size:0.666664em}
		.st21 {marker-end:url(#mrkr4-120);stroke:#e96f0c;stroke-linecap:round;stroke-linejoin:round;stroke-width:0.2376}
		.st22 {fill:#e96f0c;fill-opacity:1;stroke:#e96f0c;stroke-opacity:1;stroke-width:0.086161879895561}
		.st23 {marker-end:url(#mrkr4-126);stroke:#e96f0c;stroke-linecap:round;stroke-linejoin:round;stroke-width:0.2376}
		.st24 {fill:#ffffff;stroke:#f59d56;stroke-linecap:round;stroke-linejoin:round;stroke-width:0.75}
		.st25 {fill:#994808;font-family:Calibri;font-size:0.666664em}
		.st26 {fill:#9b4908;font-family:Calibri;font-size:0.666664em}
		.st27 {marker-end:url(#mrkr4-145);stroke:#0070c0;stroke-linecap:round;stroke-linejoin:round;stroke-width:0.2376}
		.st28 {fill:#0070c0;fill-opacity:1;stroke:#0070c0;stroke-opacity:1;stroke-width:0.086161879895561}
		.st29 {marker-end:url(#mrkr4-151);stroke:#0070c0;stroke-linecap:round;stroke-linejoin:round;stroke-width:0.2376}
		.st30 {fill:#ffffff;stroke:#0070c0;stroke-linecap:round;stroke-linejoin:round;stroke-width:0.75}
		.st31 {fill:#002060;font-family:Calibri;font-size:0.666664em}
		.st32 {fill:none;fill-rule:evenodd;font-size:12px;overflow:visible;stroke-linecap:square;stroke-miterlimit:3}
	]]>
	</style>

	<defs id="Markers">
		<g id="lend4">
			<path d="M 2 1 L 0 0 L 2 -1 L 2 1 " style="stroke:none"/>
		</g>
		<marker id="mrkr4-7" class="st2" refX="-21.69696969697" orient="auto" markerUnits="strokeWidth" overflow="visible">
			<use xlink:href="#lend4" transform="scale(-11.606060606061,-11.606060606061) "/>
		</marker>
		<marker id="mrkr4-20" class="st2" refX="-23.212121212121" orient="auto" markerUnits="strokeWidth" overflow="visible">
			<use xlink:href="#lend4" transform="scale(-11.606060606061,-11.606060606061) "/>
		</marker>
		<marker id="mrkr4-46" class="st7" refX="-21.69696969697" orient="auto" markerUnits="strokeWidth" overflow="visible">
			<use xlink:href="#lend4" transform="scale(-11.606060606061,-11.606060606061) "/>
		</marker>
		<marker id="mrkr4-57" class="st12" refX="-21.69696969697" orient="auto" markerUnits="strokeWidth" overflow="visible">
			<use xlink:href="#lend4" transform="scale(-11.606060606061,-11.606060606061) "/>
		</marker>
		<marker id="mrkr4-84" class="st18" refX="-23.212121212121" orient="auto" markerUnits="strokeWidth" overflow="visible">
			<use xlink:href="#lend4" transform="scale(-11.606060606061,-11.606060606061) "/>
		</marker>
		<marker id="mrkr4-101" class="st12" refX="-23.212121212121" orient="auto" markerUnits="strokeWidth" overflow="visible">
			<use xlink:href="#lend4" transform="scale(-11.606060606061,-11.606060606061) "/>
		</marker>
		<marker id="mrkr4-120" class="st22" refX="-0" orient="auto" markerUnits="strokeWidth" overflow="visible">
			<use xlink:href="#lend4" transform="scale(-11.606060606061,-11.606060606061) "/>
		</marker>
		<marker id="mrkr4-126" class="st22" refX="-23.212121212121" orient="auto" markerUnits="strokeWidth" overflow="visible">
			<use xlink:href="#lend4" transform="scale(-11.606060606061,-11.606060606061) "/>
		</marker>
		<marker id="mrkr4-145" class="st28" refX="-21.69696969697" orient="auto" markerUnits="strokeWidth" overflow="visible">
			<use xlink:href="#lend4" transform="scale(-11.606060606061,-11.606060606061) "/>
		</marker>
		<marker id="mrkr4-151" class="st28" refX="-23.212121212121" orient="auto" markerUnits="strokeWidth" overflow="visible">
			<use xlink:href="#lend4" transform="scale(-11.606060606061,-11.606060606061) "/>
		</marker>
	</defs>
	<g>
		<title>Page-1</title>
		<g id="group28-1" transform="translate(375.545,-281.121)">
			<title>Sheet.28</title>
		</g>
		<g id="shape36-2" transform="translate(310.394,-446.457)">
			<title>Dynamic connector.36</title>
			<path d="M0 595.28 C-10.28 595.28 -23.7 595.28 -31.28 621.45 C-40.72 654.04 -41.09 727.21 -41.1 773.67 L-41.1 774.03"
					class="st1"/>
		</g>
		<g id="group41-8" transform="translate(310.394,-393.399)">
			<title>Sheet.41</title>
			<g id="group37-9">
				<title>Sheet.37</title>
				<g id="shape5-10" transform="translate(136.063,-92.7432)">
					<title>Dynamic connector</title>
					<path d="M0 595.28 C-19.86 595.28 -21.17 629.92 -45.53 634.47 L-45.89 634.5" class="st1"/>
				</g>
				<g id="shape6-15" transform="translate(136.063,-45.9716)">
					<title>Dynamic connector.6</title>
					<path d="M0 588.19 C-11.11 588.19 -31.9 588.19 -45.51 588.19" class="st3"/>
				</g>
				<g id="shape7-21" transform="translate(136.063,-13.3731)">
					<title>Dynamic connector.7</title>
					<path d="M0 595.28 C-19.86 595.28 -21.17 560.63 -45.53 556.08 L-45.89 556.05" class="st1"/>
				</g>
				<g id="shape1-26" transform="translate(0,-39.685)">
					<title>Rounded Rectangle</title>
					<desc>Construct</desc>
					<path d="M5.67 595.28 L79.37 595.28 A5.6692 5.6692 -180 0 0 85.04 589.61 L85.04 574.2 A5.6692 5.6692 -180 0 0
								 79.37 568.53 L5.67 568.53 A5.6692 5.6692 -180 0 0 0 574.2 L0 589.61 A5.6692 5.6692 -180 0 0 5.67
								 595.28 Z" class="st4"/>
					<text x="26.74" y="584.3" class="st5">Construct</text>				</g>
				<g id="group23-29" transform="translate(136.063,0)">
					<title>Sheet.23</title>
					<g id="shape2-30" transform="translate(0,-79.3701)">
						<title>Rounded Rectangle.2</title>
						<desc>Toolkit</desc>
						<path d="M5.67 595.28 L79.37 595.28 A5.6692 5.6692 -180 0 0 85.04 589.61 L85.04 574.2 A5.6692 5.6692 -180
									 0 0 79.37 568.53 L5.67 568.53 A5.6692 5.6692 -180 0 0 0 574.2 L0 589.61 A5.6692 5.6692 -180
									 0 0 5.67 595.28 Z" class="st4"/>
						<text x="31.36" y="584.3" class="st5">Toolkit</text>					</g>
					<g id="shape3-33">
						<title>Rounded Rectangle.3</title>
						<desc>Assets</desc>
						<path d="M5.67 595.28 L79.37 595.28 A5.6692 5.6692 -180 0 0 85.04 589.61 L85.04 574.2 A5.6692 5.6692 -180
									 0 0 79.37 568.53 L5.67 568.53 A5.6692 5.6692 -180 0 0 0 574.2 L0 589.61 A5.6692 5.6692 -180
									 0 0 5.67 595.28 Z" class="st4"/>
						<text x="32.18" y="584.3" class="st5">Assets</text>					</g>
					<g id="shape4-36" transform="translate(0,-39.685)">
						<title>Rounded Rectangle.4</title>
						<desc>Settings</desc>
						<path d="M5.67 595.28 L79.37 595.28 A5.6692 5.6692 -180 0 0 85.04 589.61 L85.04 574.2 A5.6692 5.6692 -180
									 0 0 79.37 568.53 L5.67 568.53 A5.6692 5.6692 -180 0 0 0 574.2 L0 589.61 A5.6692 5.6692 -180
									 0 0 5.67 595.28 Z" class="st4"/>
						<text x="29.55" y="584.3" class="st5">Settings</text>					</g>
				</g>
			</g>
			<g id="group40-39" transform="translate(221.102,-19.8425)">
				<title>Sheet.40</title>
				<g id="group38-40" transform="translate(0,-33.2156)">
					<title>Sheet.38</title>
					<g id="shape25-41" transform="translate(51.0236,-19.8425)">
						<title>Dynamic connector.25</title>
						<path d="M0 595.28 C-19.86 595.28 -21.17 612.59 -45.51 614.87 L-45.87 614.89" class="st6"/>
					</g>
					<g id="shape20-47" transform="translate(51.0236,-6.46939)">
						<title>Rounded Rectangle.20</title>
						<desc>Foundation Settings</desc>
						<path d="M5.67 595.28 L79.37 595.28 A5.6692 5.6692 -180 0 0 85.04 589.61 L85.04 574.2 A5.6692 5.6692 -180
									 0 0 79.37 568.53 L5.67 568.53 A5.6692 5.6692 -180 0 0 0 574.2 L0 589.61 A5.6692 5.6692 -180
									 0 0 5.67 595.28 Z" class="st8"/>
						<text x="23.88" y="579.5" class="st9">Foundation  <tspan x="29.55" dy="1.2em" class="st10">Settings</tspan></text>					</g>
				</g>
				<g id="group39-51">
					<title>Sheet.39</title>
					<g id="shape26-52" transform="translate(51.0236,-13.3731)">
						<title>Dynamic connector.26</title>
						<path d="M0 595.28 C-19.86 595.28 -21.17 577.96 -45.51 575.68 L-45.87 575.66" class="st11"/>
					</g>
					<g id="shape21-58" transform="translate(51.0236,0)">
						<title>Rounded Rectangle.21</title>
						<desc>Theme Settings</desc>
						<path d="M5.67 595.28 L79.37 595.28 A5.6692 5.6692 -180 0 0 85.04 589.61 L85.04 574.2 A5.6692 5.6692 -180
									 0 0 79.37 568.53 L5.67 568.53 A5.6692 5.6692 -180 0 0 0 574.2 L0 589.61 A5.6692 5.6692 -180
									 0 0 5.67 595.28 Z" class="st13"/>
						<text x="31.29" y="579.5" class="st14">Theme  <tspan x="29.55" dy="1.2em" class="st10">Settings</tspan></text>					</g>
				</g>
			</g>
		</g>
		<g id="group42-62" transform="translate(375.545,-281.121)">
			<title>Sheet.42</title>
		</g>
		<g id="group59-63" transform="translate(93.4976,-148.819)">
			<title>Sheet.59</title>
			<g id="shape55-64" transform="translate(133.228,0)">
				<title>Terminator.55</title>
				<desc>main.css</desc>
				<path d="M14.17 595.28 L70.87 595.28 A14.1732 14.1732 -180 0 0 70.87 566.93 L14.17 566.93 A14.1732 14.1732 -180 1
							 0 14.17 595.28 Z" class="st15"/>
				<text x="28.56" y="583.5" class="st16">main.css</text>			</g>
			<g id="group58-67" transform="translate(0,-28.3465)">
				<title>Sheet.58</title>
				<g id="shape27-68" transform="translate(133.274,-58.636)">
					<title>Rounded Rectangle.27</title>
					<desc>Core (Main)</desc>
					<path d="M5.67 595.28 L79.37 595.28 A5.6692 5.6692 -180 0 0 85.04 589.61 L85.04 574.2 A5.6692 5.6692 -180 0 0
								 79.37 568.53 L5.67 568.53 A5.6692 5.6692 -180 0 0 0 574.2 L0 589.61 A5.6692 5.6692 -180 0 0 5.67
								 595.28 Z" class="st15"/>
					<text x="23.21" y="584.3" class="st16">Core (Main)</text>				</g>
				<g id="group47-71" transform="translate(-2.83465,-50.7493)">
					<title>Multi document</title>
					<g id="shape48-72" transform="translate(28.3465,-28.3465)">
						<title>Sheet.48</title>
						<path d="M0 589.96 L0 552.76 L70.87 552.76 L70.87 589.96 A32.185 32.185 -180 0 0 35.43 589.96 A32.185 32.185
									 0 0 1 -0 589.96 Z" class="st15"/>
					</g>
					<g id="shape49-74" transform="translate(14.1732,-14.1732)">
						<title>Sheet.49</title>
						<path d="M0 589.96 L0 552.76 L70.87 552.76 L70.87 589.96 A32.185 32.185 -180 0 0 35.43 589.96 A32.185 32.185
									 0 0 1 -0 589.96 Z" class="st15"/>
					</g>
					<g id="shape50-76">
						<title>Sheet.50</title>
						<desc>Modules</desc>
						<path d="M0 589.96 L0 552.76 L70.87 552.76 L70.87 589.96 A32.185 32.185 -180 0 0 35.43 589.96 A32.185 32.185
									 0 0 1 -0 589.96 Z" class="st15"/>
						<text x="21.23" y="571.1" class="st16">Modules</text>					</g>
				</g>
				<g id="shape56-79" transform="translate(182.858,-58.636)">
					<title>Dynamic connector</title>
					<path d="M-7.06 595.28 L-7.06 616.54 L-7.11 616.54 L-7.11 648.4" class="st17"/>
				</g>
			</g>
		</g>
		<g id="shape51-85" transform="translate(310.394,-446.457)">
			<title>Dynamic connector.51</title>
			<path d="M0 595.28 C-46.07 595.28 -115.63 595.28 -150.18 628.71 C-182.9 660.36 -184.24 721.97 -184.3 765.78 L-184.3 766.14"
					class="st1"/>
		</g>
		<g id="group80-90" transform="translate(333.025,-141.366)">
			<title>Sheet.80</title>
			<g id="shape34-91" transform="translate(42.5197,-55.0019)">
				<title>Dynamic connector.34</title>
				<path d="M0 595.28 C-20.3 595.28 -21.22 547.14 -58.23 542.78 L-58.59 542.76" class="st11"/>
			</g>
			<g id="shape19-96" transform="translate(185.669,-47.9153)">
				<title>Dynamic connector.19</title>
				<path d="M0 588.19 L-52.6 588.19" class="st19"/>
			</g>
			<g id="shape14-102" transform="translate(42.5197,-41.6288)">
				<title>Rounded Rectangle.14</title>
				<desc>Theme</desc>
				<path d="M5.67 595.28 L79.37 595.28 A5.6692 5.6692 -180 0 0 85.04 589.61 L85.04 574.2 A5.6692 5.6692 -180 0 0 79.37
							 568.53 L5.67 568.53 A5.6692 5.6692 -180 0 0 0 574.2 L0 589.61 A5.6692 5.6692 -180 0 0 5.67 595.28 Z"
						class="st13"/>
				<text x="31.29" y="584.3" class="st14">Theme</text>			</g>
			<g id="group15-105" transform="translate(185.669,-33.7421)">
				<title>Multi document.15</title>
				<g id="shape16-106" transform="translate(28.3465,-28.3465)">
					<title>Sheet.16</title>
					<path d="M0 589.96 L0 552.76 L70.87 552.76 L70.87 589.96 A32.185 32.185 -180 0 0 35.43 589.96 A32.185 32.185
								 0 0 1 -0 589.96 Z" class="st13"/>
				</g>
				<g id="shape17-108" transform="translate(14.1732,-14.1732)">
					<title>Sheet.17</title>
					<path d="M0 589.96 L0 552.76 L70.87 552.76 L70.87 589.96 A32.185 32.185 -180 0 0 35.43 589.96 A32.185 32.185
								 0 0 1 -0 589.96 Z" class="st13"/>
				</g>
				<g id="shape18-110">
					<title>Sheet.18</title>
					<desc>Theme Components</desc>
					<path d="M0 589.96 L0 552.76 L70.87 552.76 L70.87 589.96 A32.185 32.185 -180 0 0 35.43 589.96 A32.185 32.185
								 0 0 1 -0 589.96 Z" class="st13"/>
					<text x="24.21" y="566.3" class="st20">Theme  <tspan x="14.69" dy="1.2em" class="st10">Components</tspan></text>				</g>
			</g>
		</g>
		<g id="group81-114" transform="translate(333.025,-228.115)">
			<title>Sheet.81</title>
			<g id="shape70-115" transform="translate(42.5197,-28.2464)">
				<title>Dynamic connector.70</title>
				<path d="M0 602.26 C-10.63 602.26 -14.88 602.26 -17.44 602.28 C-21.26 602.31 -21.26 602.37 -25.16 602.41 C-30.36
							 602.46 -42.5 602.46 -63.73 602.46" class="st21"/>
			</g>
			<g id="shape72-121" transform="translate(185.669,-14.1732)">
				<title>Dynamic connector.19</title>
				<path d="M0 588.19 L-52.6 588.19" class="st23"/>
			</g>
			<g id="shape74-127" transform="translate(42.5197,-7.88672)">
				<title>Rounded Rectangle.14</title>
				<desc>Vendor</desc>
				<path d="M5.67 595.28 L79.37 595.28 A5.6692 5.6692 -180 0 0 85.04 589.61 L85.04 574.2 A5.6692 5.6692 -180 0 0 79.37
							 568.53 L5.67 568.53 A5.6692 5.6692 -180 0 0 0 574.2 L0 589.61 A5.6692 5.6692 -180 0 0 5.67 595.28 Z"
						class="st24"/>
				<text x="30.55" y="584.3" class="st25">Vendor</text>			</g>
			<g id="group75-130" transform="translate(185.669,0)">
				<title>Multi document.15</title>
				<g id="shape76-131" transform="translate(28.3465,-28.3465)">
					<title>Sheet.76</title>
					<path d="M0 589.96 L0 552.76 L70.87 552.76 L70.87 589.96 A32.185 32.185 -180 0 0 35.43 589.96 A32.185 32.185
								 0 0 1 -0 589.96 Z" class="st24"/>
				</g>
				<g id="shape77-133" transform="translate(14.1732,-14.1732)">
					<title>Sheet.77</title>
					<path d="M0 589.96 L0 552.76 L70.87 552.76 L70.87 589.96 A32.185 32.185 -180 0 0 35.43 589.96 A32.185 32.185
								 0 0 1 -0 589.96 Z" class="st24"/>
				</g>
				<g id="shape78-135">
					<title>Sheet.78</title>
					<desc>Vendor Components</desc>
					<path d="M0 589.96 L0 552.76 L70.87 552.76 L70.87 589.96 A32.185 32.185 -180 0 0 35.43 589.96 A32.185 32.185
								 0 0 1 -0 589.96 Z" class="st24"/>
					<text x="23.47" y="566.3" class="st26">Vendor <tspan x="14.69" dy="1.2em" class="st10">Components</tspan></text>				</g>
			</g>
		</g>
		<g id="group82-139" transform="translate(333.025,-277.178)">
			<title>Sheet.82</title>
			<g id="shape33-140" transform="translate(42.5197,-25.2032)">
				<title>Dynamic connector.33</title>
				<path d="M0 595.28 C-20.3 595.28 -21.22 643.78 -58.23 648.17 L-58.59 648.19" class="st27"/>
			</g>
			<g id="shape13-146" transform="translate(185.669,-18.1166)">
				<title>Dynamic connector.13</title>
				<path d="M0 588.19 L-52.6 588.19" class="st29"/>
			</g>
			<g id="shape8-152" transform="translate(42.5197,-11.8301)">
				<title>Rounded Rectangle.8</title>
				<desc>Foundation</desc>
				<path d="M5.67 595.28 L79.37 595.28 A5.6692 5.6692 -180 0 0 85.04 589.61 L85.04 574.2 A5.6692 5.6692 -180 0 0 79.37
							 568.53 L5.67 568.53 A5.6692 5.6692 -180 0 0 0 574.2 L0 589.61 A5.6692 5.6692 -180 0 0 5.67 595.28 Z"
						class="st30"/>
				<text x="23.88" y="584.3" class="st31">Foundation</text>			</g>
			<g id="group9-155" transform="translate(185.669,-3.94336)">
				<title>Multi document</title>
				<g id="shape10-156" transform="translate(28.3465,-28.3465)">
					<title>Sheet.10</title>
					<path d="M0 589.96 L0 552.76 L70.87 552.76 L70.87 589.96 A32.185 32.185 -180 0 0 35.43 589.96 A32.185 32.185
								 0 0 1 -0 589.96 Z" class="st30"/>
				</g>
				<g id="shape11-158" transform="translate(14.1732,-14.1732)">
					<title>Sheet.11</title>
					<path d="M0 589.96 L0 552.76 L70.87 552.76 L70.87 589.96 A32.185 32.185 -180 0 0 35.43 589.96 A32.185 32.185
								 0 0 1 -0 589.96 Z" class="st30"/>
				</g>
				<g id="shape12-160">
					<title>Sheet.12</title>
					<desc>Foundation Components</desc>
					<path d="M0 589.96 L0 552.76 L70.87 552.76 L70.87 589.96 A32.185 32.185 -180 0 0 35.43 589.96 A32.185 32.185
								 0 0 1 -0 589.96 Z" class="st30"/>
					<text x="16.8" y="566.3" class="st31">Foundation <tspan x="14.69" dy="1.2em" class="st10">Components</tspan></text>				</g>
			</g>
		</g>
		<g id="shape84-164" transform="translate(119.055,-233.23)">
			<title>Dynamic connector</title>
			<path d="M7.04 595.28 L7.04 621.85 L7.13 621.85 L7.13 645.82" class="st17"/>
		</g>
		<g id="shape83-169" transform="translate(83.6678,-148.819)">
			<title>Terminator.55</title>
			<desc>module-main.css</desc>
			<path d="M14.17 595.28 L70.87 595.28 A14.1732 14.1732 -180 0 0 70.87 566.93 L14.17 566.93 A14.1732 14.1732 -180 1 0 14.17
						 595.28 Z" class="st15"/>
			<text x="14.92" y="583.5" class="st16">module-main.css</text>		</g>
	</g>
</svg>
